<mxfile host="Electron" modified="2024-06-20T13:28:45.059Z" agent="Mozilla/5.0 (Windows NT 10.0; Win64; x64) AppleWebKit/537.36 (KHTML, like Gecko) draw.io/24.5.3 Chrome/124.0.6367.207 Electron/30.0.6 Safari/537.36" etag="IPHDM37g2SSskOFz7QQz" version="24.5.3" type="device">
  <diagram name="Page-1" id="k1zoHzIdlmFqJw21Nqds">
    <mxGraphModel dx="1601" dy="1557" grid="1" gridSize="10" guides="1" tooltips="1" connect="1" arrows="1" fold="1" page="1" pageScale="1" pageWidth="850" pageHeight="1100" background="#ffffff" math="0" shadow="0">
      <root>
        <mxCell id="0" />
        <mxCell id="1" parent="0" />
        <mxCell id="3EoNgzlk2bNuSgaq7oMU-3" style="edgeStyle=orthogonalEdgeStyle;rounded=0;orthogonalLoop=1;jettySize=auto;html=1;entryX=0.805;entryY=0.619;entryDx=0;entryDy=0;entryPerimeter=0;dashed=1;dashPattern=1 1;strokeColor=#FF3333;" edge="1" parent="1" source="Y3J3v4-f-Fv20hqHsZZ0-27" target="Y3J3v4-f-Fv20hqHsZZ0-15">
          <mxGeometry relative="1" as="geometry">
            <Array as="points">
              <mxPoint x="675" y="343" />
              <mxPoint x="675" y="400" />
              <mxPoint x="250" y="400" />
              <mxPoint x="250" y="317" />
            </Array>
          </mxGeometry>
        </mxCell>
        <mxCell id="3EoNgzlk2bNuSgaq7oMU-2" style="edgeStyle=orthogonalEdgeStyle;rounded=0;orthogonalLoop=1;jettySize=auto;html=1;dashed=1;dashPattern=1 1;strokeColor=#FF3333;" edge="1" parent="1" source="Y3J3v4-f-Fv20hqHsZZ0-36" target="Y3J3v4-f-Fv20hqHsZZ0-15">
          <mxGeometry relative="1" as="geometry">
            <Array as="points">
              <mxPoint x="600" y="240" />
              <mxPoint x="95" y="240" />
            </Array>
          </mxGeometry>
        </mxCell>
        <mxCell id="3EoNgzlk2bNuSgaq7oMU-1" style="edgeStyle=orthogonalEdgeStyle;rounded=0;orthogonalLoop=1;jettySize=auto;html=1;dashed=1;dashPattern=1 1;strokeColor=#FF3333;" edge="1" parent="1" source="Y3J3v4-f-Fv20hqHsZZ0-42" target="Y3J3v4-f-Fv20hqHsZZ0-15">
          <mxGeometry relative="1" as="geometry" />
        </mxCell>
        <mxCell id="Y3J3v4-f-Fv20hqHsZZ0-11" value="&lt;font color=&quot;#ff3333&quot;&gt;internet&lt;/font&gt;" style="html=1;outlineConnect=0;fillColor=#CCCCCC;strokeColor=#6881B3;gradientColor=none;gradientDirection=north;strokeWidth=2;shape=mxgraph.networks.cloud;fontColor=#000000;labelBackgroundColor=default;" parent="1" vertex="1">
          <mxGeometry x="560" y="-30" width="90" height="50" as="geometry" />
        </mxCell>
        <mxCell id="Y3J3v4-f-Fv20hqHsZZ0-12" style="edgeStyle=orthogonalEdgeStyle;rounded=0;orthogonalLoop=1;jettySize=auto;html=1;" parent="1" source="Y3J3v4-f-Fv20hqHsZZ0-13" target="Y3J3v4-f-Fv20hqHsZZ0-10" edge="1">
          <mxGeometry relative="1" as="geometry" />
        </mxCell>
        <mxCell id="Y3J3v4-f-Fv20hqHsZZ0-14" value="" style="edgeStyle=orthogonalEdgeStyle;rounded=0;orthogonalLoop=1;jettySize=auto;html=1;" parent="1" source="Y3J3v4-f-Fv20hqHsZZ0-11" target="Y3J3v4-f-Fv20hqHsZZ0-13" edge="1">
          <mxGeometry relative="1" as="geometry">
            <mxPoint x="530" y="105" as="sourcePoint" />
            <mxPoint x="420" y="220" as="targetPoint" />
          </mxGeometry>
        </mxCell>
        <mxCell id="Y3J3v4-f-Fv20hqHsZZ0-13" value="" style="fontColor=#0066CC;verticalAlign=top;verticalLabelPosition=bottom;labelPosition=center;align=center;html=1;outlineConnect=0;fillColor=#CCCCCC;strokeColor=#6881B3;gradientColor=none;gradientDirection=north;strokeWidth=2;shape=mxgraph.networks.router;" parent="1" vertex="1">
          <mxGeometry x="360" y="120" width="100" height="30" as="geometry" />
        </mxCell>
        <mxCell id="Y3J3v4-f-Fv20hqHsZZ0-20" value="" style="sketch=0;pointerEvents=1;shadow=0;dashed=0;html=1;strokeColor=none;fillColor=#505050;labelPosition=center;verticalLabelPosition=bottom;verticalAlign=top;outlineConnect=0;align=center;shape=mxgraph.office.concepts.home;" parent="1" vertex="1">
          <mxGeometry x="-90" y="70" width="51" height="50" as="geometry" />
        </mxCell>
        <mxCell id="Y3J3v4-f-Fv20hqHsZZ0-21" value="" style="sketch=0;pointerEvents=1;shadow=0;dashed=0;html=1;strokeColor=none;fillColor=#505050;labelPosition=center;verticalLabelPosition=bottom;verticalAlign=top;outlineConnect=0;align=center;shape=mxgraph.office.devices.cell_phone_android_standalone;" parent="1" vertex="1">
          <mxGeometry x="60" y="40" width="24" height="44" as="geometry" />
        </mxCell>
        <mxCell id="Y3J3v4-f-Fv20hqHsZZ0-22" value="" style="sketch=0;pointerEvents=1;shadow=0;dashed=0;html=1;strokeColor=none;fillColor=#505050;labelPosition=center;verticalLabelPosition=bottom;verticalAlign=top;outlineConnect=0;align=center;shape=mxgraph.office.devices.laptop;" parent="1" vertex="1">
          <mxGeometry x="-97" y="286" width="58" height="34" as="geometry" />
        </mxCell>
        <mxCell id="Y3J3v4-f-Fv20hqHsZZ0-30" style="edgeStyle=orthogonalEdgeStyle;rounded=0;orthogonalLoop=1;jettySize=auto;html=1;" parent="1" source="Y3J3v4-f-Fv20hqHsZZ0-28" target="Y3J3v4-f-Fv20hqHsZZ0-21" edge="1">
          <mxGeometry relative="1" as="geometry">
            <Array as="points">
              <mxPoint x="130" y="65" />
              <mxPoint x="130" y="180" />
              <mxPoint x="72" y="180" />
            </Array>
          </mxGeometry>
        </mxCell>
        <mxCell id="Y3J3v4-f-Fv20hqHsZZ0-31" style="edgeStyle=orthogonalEdgeStyle;rounded=0;orthogonalLoop=1;jettySize=auto;html=1;" parent="1" source="Y3J3v4-f-Fv20hqHsZZ0-28" target="Y3J3v4-f-Fv20hqHsZZ0-22" edge="1">
          <mxGeometry relative="1" as="geometry">
            <Array as="points">
              <mxPoint x="130" y="65" />
              <mxPoint x="130" y="180" />
              <mxPoint x="-68" y="180" />
            </Array>
          </mxGeometry>
        </mxCell>
        <mxCell id="Y3J3v4-f-Fv20hqHsZZ0-28" value="" style="sketch=0;pointerEvents=1;shadow=0;dashed=0;html=1;strokeColor=none;fillColor=#434445;aspect=fixed;labelPosition=center;verticalLabelPosition=bottom;verticalAlign=top;align=center;outlineConnect=0;shape=mxgraph.vvd.vpn;" parent="1" vertex="1">
          <mxGeometry x="230" y="30" width="50" height="50" as="geometry" />
        </mxCell>
        <mxCell id="Y3J3v4-f-Fv20hqHsZZ0-29" style="edgeStyle=orthogonalEdgeStyle;rounded=0;orthogonalLoop=1;jettySize=auto;html=1;entryX=0;entryY=0.5;entryDx=0;entryDy=0;entryPerimeter=0;" parent="1" source="Y3J3v4-f-Fv20hqHsZZ0-28" target="Y3J3v4-f-Fv20hqHsZZ0-10" edge="1">
          <mxGeometry relative="1" as="geometry" />
        </mxCell>
        <mxCell id="Y3J3v4-f-Fv20hqHsZZ0-37" style="edgeStyle=orthogonalEdgeStyle;rounded=0;orthogonalLoop=1;jettySize=auto;html=1;entryX=0;entryY=0.5;entryDx=0;entryDy=0;" parent="1" source="Y3J3v4-f-Fv20hqHsZZ0-39" target="Y3J3v4-f-Fv20hqHsZZ0-36" edge="1">
          <mxGeometry relative="1" as="geometry" />
        </mxCell>
        <mxCell id="Y3J3v4-f-Fv20hqHsZZ0-34" value="&lt;font color=&quot;#ff3333&quot;&gt;Router&lt;/font&gt;" style="text;html=1;align=center;verticalAlign=middle;whiteSpace=wrap;rounded=0;labelBackgroundColor=default;" parent="1" vertex="1">
          <mxGeometry x="380" y="120" width="60" height="30" as="geometry" />
        </mxCell>
        <mxCell id="Y3J3v4-f-Fv20hqHsZZ0-35" value="PC" style="text;html=1;align=center;verticalAlign=middle;whiteSpace=wrap;rounded=0;" parent="1" vertex="1">
          <mxGeometry x="-99" y="288" width="60" height="30" as="geometry" />
        </mxCell>
        <mxCell id="Y3J3v4-f-Fv20hqHsZZ0-38" style="edgeStyle=orthogonalEdgeStyle;rounded=0;orthogonalLoop=1;jettySize=auto;html=1;" parent="1" source="Y3J3v4-f-Fv20hqHsZZ0-36" target="Y3J3v4-f-Fv20hqHsZZ0-10" edge="1">
          <mxGeometry relative="1" as="geometry">
            <Array as="points">
              <mxPoint x="605" y="270" />
            </Array>
          </mxGeometry>
        </mxCell>
        <mxCell id="Y3J3v4-f-Fv20hqHsZZ0-40" value="" style="edgeStyle=orthogonalEdgeStyle;rounded=0;orthogonalLoop=1;jettySize=auto;html=1;entryX=0;entryY=0.5;entryDx=0;entryDy=0;" parent="1" source="Y3J3v4-f-Fv20hqHsZZ0-34" target="Y3J3v4-f-Fv20hqHsZZ0-39" edge="1">
          <mxGeometry relative="1" as="geometry">
            <mxPoint x="440" y="135" as="sourcePoint" />
            <mxPoint x="575" y="145" as="targetPoint" />
          </mxGeometry>
        </mxCell>
        <mxCell id="Y3J3v4-f-Fv20hqHsZZ0-39" value="DNS" style="text;html=1;align=center;verticalAlign=middle;whiteSpace=wrap;rounded=0;labelBackgroundColor=default;" parent="1" vertex="1">
          <mxGeometry x="481" y="120" width="60" height="30" as="geometry" />
        </mxCell>
        <mxCell id="Y3J3v4-f-Fv20hqHsZZ0-41" value="&lt;font color=&quot;#ff3333&quot;&gt;TailScale&lt;/font&gt;" style="text;html=1;align=center;verticalAlign=middle;whiteSpace=wrap;rounded=0;labelBackgroundColor=default;" parent="1" vertex="1">
          <mxGeometry x="225" y="12" width="60" height="30" as="geometry" />
        </mxCell>
        <mxCell id="Y3J3v4-f-Fv20hqHsZZ0-43" style="edgeStyle=orthogonalEdgeStyle;rounded=0;orthogonalLoop=1;jettySize=auto;html=1;entryX=1;entryY=0.5;entryDx=0;entryDy=0;entryPerimeter=0;" parent="1" edge="1">
          <mxGeometry relative="1" as="geometry">
            <mxPoint x="675" y="249.9966666666666" as="sourcePoint" />
            <mxPoint x="465" y="269.93" as="targetPoint" />
            <Array as="points">
              <mxPoint x="605" y="249.93" />
              <mxPoint x="605" y="269.93" />
            </Array>
          </mxGeometry>
        </mxCell>
        <mxCell id="Y3J3v4-f-Fv20hqHsZZ0-45" style="edgeStyle=orthogonalEdgeStyle;rounded=0;orthogonalLoop=1;jettySize=auto;html=1;entryX=1;entryY=0.5;entryDx=0;entryDy=0;entryPerimeter=0;" parent="1" source="Y3J3v4-f-Fv20hqHsZZ0-44" target="Y3J3v4-f-Fv20hqHsZZ0-10" edge="1">
          <mxGeometry relative="1" as="geometry">
            <Array as="points">
              <mxPoint x="610" y="343" />
              <mxPoint x="610" y="270" />
            </Array>
          </mxGeometry>
        </mxCell>
        <mxCell id="3EoNgzlk2bNuSgaq7oMU-9" style="edgeStyle=orthogonalEdgeStyle;rounded=0;orthogonalLoop=1;jettySize=auto;html=1;entryX=0;entryY=0.5;entryDx=0;entryDy=0;dashed=1;" edge="1" parent="1" source="Y3J3v4-f-Fv20hqHsZZ0-47" target="3EoNgzlk2bNuSgaq7oMU-8">
          <mxGeometry relative="1" as="geometry">
            <Array as="points">
              <mxPoint x="40" y="313" />
              <mxPoint x="40" y="515" />
            </Array>
          </mxGeometry>
        </mxCell>
        <mxCell id="Y3J3v4-f-Fv20hqHsZZ0-50" style="edgeStyle=orthogonalEdgeStyle;rounded=0;orthogonalLoop=1;jettySize=auto;html=1;" parent="1" source="Y3J3v4-f-Fv20hqHsZZ0-49" target="Y3J3v4-f-Fv20hqHsZZ0-10" edge="1">
          <mxGeometry relative="1" as="geometry" />
        </mxCell>
        <mxCell id="3EoNgzlk2bNuSgaq7oMU-4" style="edgeStyle=orthogonalEdgeStyle;rounded=0;orthogonalLoop=1;jettySize=auto;html=1;dashed=1;dashPattern=1 1;strokeColor=#FF3333;" edge="1" parent="1" source="Y3J3v4-f-Fv20hqHsZZ0-49">
          <mxGeometry relative="1" as="geometry">
            <mxPoint x="110" y="310" as="targetPoint" />
            <Array as="points">
              <mxPoint x="250" y="435" />
              <mxPoint x="250" y="310" />
            </Array>
          </mxGeometry>
        </mxCell>
        <mxCell id="3EoNgzlk2bNuSgaq7oMU-7" style="edgeStyle=orthogonalEdgeStyle;rounded=0;orthogonalLoop=1;jettySize=auto;html=1;exitX=1;exitY=0.5;exitDx=0;exitDy=0;entryX=0;entryY=0.5;entryDx=0;entryDy=0;" edge="1" parent="1" source="Y3J3v4-f-Fv20hqHsZZ0-49" target="Y3J3v4-f-Fv20hqHsZZ0-58">
          <mxGeometry relative="1" as="geometry" />
        </mxCell>
        <mxCell id="Y3J3v4-f-Fv20hqHsZZ0-56" style="edgeStyle=orthogonalEdgeStyle;rounded=0;orthogonalLoop=1;jettySize=auto;html=1;exitX=0.5;exitY=1;exitDx=0;exitDy=0;entryX=0.5;entryY=0;entryDx=0;entryDy=0;" parent="1" source="Y3J3v4-f-Fv20hqHsZZ0-52" target="Y3J3v4-f-Fv20hqHsZZ0-55" edge="1">
          <mxGeometry relative="1" as="geometry" />
        </mxCell>
        <mxCell id="3EoNgzlk2bNuSgaq7oMU-5" style="edgeStyle=orthogonalEdgeStyle;rounded=0;orthogonalLoop=1;jettySize=auto;html=1;entryX=0.75;entryY=1;entryDx=0;entryDy=0;dashed=1;dashPattern=1 1;strokeColor=#FF3333;" edge="1" parent="1" source="Y3J3v4-f-Fv20hqHsZZ0-55" target="Y3J3v4-f-Fv20hqHsZZ0-47">
          <mxGeometry relative="1" as="geometry">
            <Array as="points">
              <mxPoint x="250" y="550" />
              <mxPoint x="250" y="328" />
            </Array>
          </mxGeometry>
        </mxCell>
        <mxCell id="Y3J3v4-f-Fv20hqHsZZ0-59" style="edgeStyle=orthogonalEdgeStyle;rounded=0;orthogonalLoop=1;jettySize=auto;html=1;entryX=0;entryY=0.5;entryDx=0;entryDy=0;entryPerimeter=0;" parent="1" source="Y3J3v4-f-Fv20hqHsZZ0-47" target="Y3J3v4-f-Fv20hqHsZZ0-10" edge="1">
          <mxGeometry relative="1" as="geometry" />
        </mxCell>
        <mxCell id="Y3J3v4-f-Fv20hqHsZZ0-62" style="edgeStyle=orthogonalEdgeStyle;rounded=0;orthogonalLoop=1;jettySize=auto;html=1;entryX=0;entryY=0.5;entryDx=0;entryDy=0;entryPerimeter=0;" parent="1" source="Y3J3v4-f-Fv20hqHsZZ0-48" target="Y3J3v4-f-Fv20hqHsZZ0-10" edge="1">
          <mxGeometry relative="1" as="geometry">
            <Array as="points">
              <mxPoint x="248" y="415" />
              <mxPoint x="248" y="270" />
            </Array>
          </mxGeometry>
        </mxCell>
        <mxCell id="3EoNgzlk2bNuSgaq7oMU-6" style="edgeStyle=orthogonalEdgeStyle;rounded=0;orthogonalLoop=1;jettySize=auto;html=1;entryX=0.5;entryY=1;entryDx=0;entryDy=0;entryPerimeter=0;dashed=1;dashPattern=1 1;strokeColor=#FF3333;" edge="1" parent="1" source="Y3J3v4-f-Fv20hqHsZZ0-48" target="Y3J3v4-f-Fv20hqHsZZ0-15">
          <mxGeometry relative="1" as="geometry" />
        </mxCell>
        <mxCell id="3EoNgzlk2bNuSgaq7oMU-10" style="edgeStyle=orthogonalEdgeStyle;rounded=0;orthogonalLoop=1;jettySize=auto;html=1;entryX=0;entryY=0.5;entryDx=0;entryDy=0;entryPerimeter=0;" edge="1" parent="1" source="3EoNgzlk2bNuSgaq7oMU-8" target="Y3J3v4-f-Fv20hqHsZZ0-10">
          <mxGeometry relative="1" as="geometry" />
        </mxCell>
        <mxCell id="3EoNgzlk2bNuSgaq7oMU-21" value="" style="group" vertex="1" connectable="0" parent="1">
          <mxGeometry x="65" y="380" width="60" height="70" as="geometry" />
        </mxCell>
        <mxCell id="Y3J3v4-f-Fv20hqHsZZ0-19" value="" style="fontColor=#0066CC;verticalAlign=top;verticalLabelPosition=bottom;labelPosition=center;align=center;html=1;outlineConnect=0;fillColor=#CCCCCC;strokeColor=#6881B3;gradientColor=none;gradientDirection=north;strokeWidth=2;shape=mxgraph.networks.virtual_server;" parent="3EoNgzlk2bNuSgaq7oMU-21" vertex="1">
          <mxGeometry width="60" height="70" as="geometry" />
        </mxCell>
        <mxCell id="Y3J3v4-f-Fv20hqHsZZ0-48" value="&lt;font color=&quot;#ff3333&quot;&gt;Snort&lt;/font&gt;" style="text;html=1;align=center;verticalAlign=middle;whiteSpace=wrap;rounded=0;labelBackgroundColor=default;" parent="3EoNgzlk2bNuSgaq7oMU-21" vertex="1">
          <mxGeometry y="20" width="60" height="30" as="geometry" />
        </mxCell>
        <mxCell id="3EoNgzlk2bNuSgaq7oMU-18" value="&lt;div style=&quot;font-size: 8px;&quot;&gt;10.30.50.6&lt;/div&gt;" style="text;html=1;align=center;verticalAlign=middle;whiteSpace=wrap;rounded=0;fontSize=8;labelBackgroundColor=default;" vertex="1" parent="3EoNgzlk2bNuSgaq7oMU-21">
          <mxGeometry y="5" width="60" height="30" as="geometry" />
        </mxCell>
        <mxCell id="3EoNgzlk2bNuSgaq7oMU-22" value="" style="group" vertex="1" connectable="0" parent="1">
          <mxGeometry x="65" y="280" width="60" height="60" as="geometry" />
        </mxCell>
        <mxCell id="Y3J3v4-f-Fv20hqHsZZ0-15" value="" style="fontColor=#0066CC;verticalAlign=top;verticalLabelPosition=bottom;labelPosition=center;align=center;html=1;outlineConnect=0;fillColor=#CCCCCC;strokeColor=#6881B3;gradientColor=none;gradientDirection=north;strokeWidth=2;shape=mxgraph.networks.server;" parent="3EoNgzlk2bNuSgaq7oMU-22" vertex="1">
          <mxGeometry x="5" width="50" height="60" as="geometry" />
        </mxCell>
        <mxCell id="Y3J3v4-f-Fv20hqHsZZ0-47" value="WAZUH" style="text;html=1;align=center;verticalAlign=middle;whiteSpace=wrap;rounded=0;labelBackgroundColor=default;fontColor=#FF3333;" parent="3EoNgzlk2bNuSgaq7oMU-22" vertex="1">
          <mxGeometry y="18" width="60" height="30" as="geometry" />
        </mxCell>
        <mxCell id="3EoNgzlk2bNuSgaq7oMU-17" value="&lt;div style=&quot;font-size: 8px;&quot;&gt;10.30.50.5&lt;/div&gt;" style="text;html=1;align=center;verticalAlign=middle;whiteSpace=wrap;rounded=0;fontSize=8;labelBackgroundColor=default;" vertex="1" parent="3EoNgzlk2bNuSgaq7oMU-22">
          <mxGeometry width="60" height="30" as="geometry" />
        </mxCell>
        <mxCell id="3EoNgzlk2bNuSgaq7oMU-23" value="" style="group" vertex="1" connectable="0" parent="1">
          <mxGeometry x="360" y="190" width="125" height="130" as="geometry" />
        </mxCell>
        <mxCell id="Y3J3v4-f-Fv20hqHsZZ0-10" value="" style="fontColor=#0066CC;verticalAlign=top;verticalLabelPosition=bottom;labelPosition=center;align=center;html=1;outlineConnect=0;fillColor=#CCCCCC;strokeColor=#6881B3;gradientColor=none;gradientDirection=north;strokeWidth=2;shape=mxgraph.networks.firewall;" parent="3EoNgzlk2bNuSgaq7oMU-23" vertex="1">
          <mxGeometry x="10" y="30" width="100" height="100" as="geometry" />
        </mxCell>
        <mxCell id="Y3J3v4-f-Fv20hqHsZZ0-33" value="&lt;font color=&quot;#ff3333&quot;&gt;OPNSense&lt;/font&gt;" style="text;html=1;align=center;verticalAlign=middle;whiteSpace=wrap;rounded=0;labelBackgroundColor=default;" parent="3EoNgzlk2bNuSgaq7oMU-23" vertex="1">
          <mxGeometry x="30" y="70" width="60" height="30" as="geometry" />
        </mxCell>
        <mxCell id="3EoNgzlk2bNuSgaq7oMU-11" value="WAN&lt;div style=&quot;font-size: 8px;&quot;&gt;192...0/24&lt;/div&gt;" style="text;html=1;align=center;verticalAlign=middle;whiteSpace=wrap;rounded=0;fontSize=8;" vertex="1" parent="3EoNgzlk2bNuSgaq7oMU-23">
          <mxGeometry width="60" height="30" as="geometry" />
        </mxCell>
        <mxCell id="3EoNgzlk2bNuSgaq7oMU-12" value="LAN&lt;div style=&quot;font-size: 8px;&quot;&gt;10...1/24&lt;/div&gt;" style="text;html=1;align=center;verticalAlign=middle;whiteSpace=wrap;rounded=0;fontSize=8;" vertex="1" parent="3EoNgzlk2bNuSgaq7oMU-23">
          <mxGeometry x="65" width="60" height="30" as="geometry" />
        </mxCell>
        <mxCell id="3EoNgzlk2bNuSgaq7oMU-24" value="" style="group" vertex="1" connectable="0" parent="1">
          <mxGeometry x="575" y="115" width="60" height="55" as="geometry" />
        </mxCell>
        <mxCell id="Y3J3v4-f-Fv20hqHsZZ0-25" value="" style="sketch=0;pointerEvents=1;shadow=0;dashed=0;html=1;strokeColor=none;fillColor=#434445;aspect=fixed;labelPosition=center;verticalLabelPosition=bottom;verticalAlign=top;align=center;outlineConnect=0;shape=mxgraph.vvd.virtual_machine;labelBackgroundColor=default;" parent="3EoNgzlk2bNuSgaq7oMU-24" vertex="1">
          <mxGeometry x="5" y="5" width="50" height="50" as="geometry" />
        </mxCell>
        <mxCell id="Y3J3v4-f-Fv20hqHsZZ0-36" value="&lt;font color=&quot;#ff3333&quot;&gt;Pihole&lt;/font&gt;" style="text;html=1;align=center;verticalAlign=middle;whiteSpace=wrap;rounded=0;labelBackgroundColor=default;" parent="3EoNgzlk2bNuSgaq7oMU-24" vertex="1">
          <mxGeometry y="15" width="60" height="30" as="geometry" />
        </mxCell>
        <mxCell id="3EoNgzlk2bNuSgaq7oMU-14" value="&lt;div style=&quot;font-size: 8px;&quot;&gt;10.30.50.2&lt;/div&gt;" style="text;html=1;align=center;verticalAlign=middle;whiteSpace=wrap;rounded=0;fontSize=8;" vertex="1" parent="3EoNgzlk2bNuSgaq7oMU-24">
          <mxGeometry width="60" height="30" as="geometry" />
        </mxCell>
        <mxCell id="3EoNgzlk2bNuSgaq7oMU-25" value="" style="group" vertex="1" connectable="0" parent="1">
          <mxGeometry x="675" y="218" width="61" height="52" as="geometry" />
        </mxCell>
        <mxCell id="Y3J3v4-f-Fv20hqHsZZ0-26" value="" style="sketch=0;pointerEvents=1;shadow=0;dashed=0;html=1;strokeColor=none;fillColor=#434445;aspect=fixed;labelPosition=center;verticalLabelPosition=bottom;verticalAlign=top;align=center;outlineConnect=0;shape=mxgraph.vvd.virtual_machine;" parent="3EoNgzlk2bNuSgaq7oMU-25" vertex="1">
          <mxGeometry x="5" y="2" width="50" height="50" as="geometry" />
        </mxCell>
        <mxCell id="Y3J3v4-f-Fv20hqHsZZ0-42" value="&lt;font color=&quot;#ff3333&quot;&gt;NginxProxyManager&lt;/font&gt;" style="text;html=1;align=center;verticalAlign=middle;whiteSpace=wrap;rounded=0;labelBackgroundColor=default;" parent="3EoNgzlk2bNuSgaq7oMU-25" vertex="1">
          <mxGeometry y="12" width="60" height="30" as="geometry" />
        </mxCell>
        <mxCell id="3EoNgzlk2bNuSgaq7oMU-15" value="&lt;div style=&quot;font-size: 8px;&quot;&gt;10.30.50.3&lt;/div&gt;" style="text;html=1;align=center;verticalAlign=middle;whiteSpace=wrap;rounded=0;fontSize=8;" vertex="1" parent="3EoNgzlk2bNuSgaq7oMU-25">
          <mxGeometry x="1" width="60" height="30" as="geometry" />
        </mxCell>
        <mxCell id="3EoNgzlk2bNuSgaq7oMU-26" value="" style="group" vertex="1" connectable="0" parent="1">
          <mxGeometry x="675" y="314" width="61" height="54" as="geometry" />
        </mxCell>
        <mxCell id="Y3J3v4-f-Fv20hqHsZZ0-27" value="" style="sketch=0;pointerEvents=1;shadow=0;dashed=0;html=1;strokeColor=none;fillColor=#434445;aspect=fixed;labelPosition=center;verticalLabelPosition=bottom;verticalAlign=top;align=center;outlineConnect=0;shape=mxgraph.vvd.virtual_machine;" parent="3EoNgzlk2bNuSgaq7oMU-26" vertex="1">
          <mxGeometry x="5" y="4" width="50" height="50" as="geometry" />
        </mxCell>
        <mxCell id="Y3J3v4-f-Fv20hqHsZZ0-44" value="&lt;font color=&quot;#ff3333&quot;&gt;Portainer/uvdesk&lt;/font&gt;" style="text;html=1;align=center;verticalAlign=middle;whiteSpace=wrap;rounded=0;labelBackgroundColor=default;" parent="3EoNgzlk2bNuSgaq7oMU-26" vertex="1">
          <mxGeometry y="14" width="60" height="30" as="geometry" />
        </mxCell>
        <mxCell id="3EoNgzlk2bNuSgaq7oMU-16" value="&lt;div style=&quot;font-size: 8px;&quot;&gt;10.30.50.4&lt;/div&gt;" style="text;html=1;align=center;verticalAlign=middle;whiteSpace=wrap;rounded=0;fontSize=8;" vertex="1" parent="3EoNgzlk2bNuSgaq7oMU-26">
          <mxGeometry x="1" width="60" height="30" as="geometry" />
        </mxCell>
        <mxCell id="3EoNgzlk2bNuSgaq7oMU-28" value="" style="group" vertex="1" connectable="0" parent="1">
          <mxGeometry x="65" y="480" width="60" height="60" as="geometry" />
        </mxCell>
        <mxCell id="Y3J3v4-f-Fv20hqHsZZ0-16" value="" style="fontColor=#0066CC;verticalAlign=top;verticalLabelPosition=bottom;labelPosition=center;align=center;html=1;outlineConnect=0;fillColor=#CCCCCC;strokeColor=#6881B3;gradientColor=none;gradientDirection=north;strokeWidth=2;shape=mxgraph.networks.server;" parent="3EoNgzlk2bNuSgaq7oMU-28" vertex="1">
          <mxGeometry x="5" width="50" height="60" as="geometry" />
        </mxCell>
        <mxCell id="3EoNgzlk2bNuSgaq7oMU-8" value="&lt;font color=&quot;#ff3333&quot;&gt;theHIVE&lt;/font&gt;" style="text;html=1;align=center;verticalAlign=middle;whiteSpace=wrap;rounded=0;labelBackgroundColor=default;" vertex="1" parent="3EoNgzlk2bNuSgaq7oMU-28">
          <mxGeometry y="20" width="60" height="30" as="geometry" />
        </mxCell>
        <mxCell id="3EoNgzlk2bNuSgaq7oMU-19" value="&lt;div style=&quot;font-size: 8px;&quot;&gt;10.30.50.7&lt;/div&gt;" style="text;html=1;align=center;verticalAlign=middle;whiteSpace=wrap;rounded=0;fontSize=8;labelBackgroundColor=default;" vertex="1" parent="3EoNgzlk2bNuSgaq7oMU-28">
          <mxGeometry width="60" height="30" as="geometry" />
        </mxCell>
        <mxCell id="3EoNgzlk2bNuSgaq7oMU-30" value="" style="group" vertex="1" connectable="0" parent="1">
          <mxGeometry x="390" y="410" width="60" height="70" as="geometry" />
        </mxCell>
        <mxCell id="Y3J3v4-f-Fv20hqHsZZ0-49" value="" style="image;aspect=fixed;perimeter=ellipsePerimeter;html=1;align=center;shadow=0;dashed=0;spacingTop=3;image=img/lib/active_directory/windows_server_2.svg;" parent="3EoNgzlk2bNuSgaq7oMU-30" vertex="1">
          <mxGeometry x="15" width="40" height="50" as="geometry" />
        </mxCell>
        <mxCell id="Y3J3v4-f-Fv20hqHsZZ0-51" value="WinSVR22" style="text;html=1;align=center;verticalAlign=middle;whiteSpace=wrap;rounded=0;labelBackgroundColor=default;fontColor=#FF3333;" parent="3EoNgzlk2bNuSgaq7oMU-30" vertex="1">
          <mxGeometry y="40" width="60" height="30" as="geometry" />
        </mxCell>
        <mxCell id="3EoNgzlk2bNuSgaq7oMU-27" value="&lt;div style=&quot;font-size: 8px;&quot;&gt;10.30.50.8&lt;/div&gt;" style="text;html=1;align=center;verticalAlign=middle;whiteSpace=wrap;rounded=0;fontSize=8;labelBackgroundColor=default;" vertex="1" parent="3EoNgzlk2bNuSgaq7oMU-30">
          <mxGeometry width="60" height="30" as="geometry" />
        </mxCell>
        <mxCell id="3EoNgzlk2bNuSgaq7oMU-31" value="" style="group" vertex="1" connectable="0" parent="1">
          <mxGeometry x="565" y="443.75" width="60" height="42.5" as="geometry" />
        </mxCell>
        <mxCell id="Y3J3v4-f-Fv20hqHsZZ0-52" value="" style="image;aspect=fixed;perimeter=ellipsePerimeter;html=1;align=center;shadow=0;dashed=0;spacingTop=3;image=img/lib/active_directory/active_directory.svg;" parent="3EoNgzlk2bNuSgaq7oMU-31" vertex="1">
          <mxGeometry x="5" width="50" height="42.5" as="geometry" />
        </mxCell>
        <mxCell id="Y3J3v4-f-Fv20hqHsZZ0-58" value="AD" style="text;html=1;align=center;verticalAlign=middle;whiteSpace=wrap;rounded=0;labelBackgroundColor=default;" parent="3EoNgzlk2bNuSgaq7oMU-31" vertex="1">
          <mxGeometry y="12.5" width="60" height="30" as="geometry" />
        </mxCell>
        <mxCell id="3EoNgzlk2bNuSgaq7oMU-32" value="&lt;div style=&quot;font-size: 8px;&quot;&gt;10.30.50.9&lt;/div&gt;" style="text;html=1;align=center;verticalAlign=middle;whiteSpace=wrap;rounded=0;fontSize=8;labelBackgroundColor=default;" vertex="1" parent="1">
          <mxGeometry x="379" y="554" width="60" height="30" as="geometry" />
        </mxCell>
        <mxCell id="3EoNgzlk2bNuSgaq7oMU-33" value="" style="group" vertex="1" connectable="0" parent="1">
          <mxGeometry x="568" y="525" width="62" height="75" as="geometry" />
        </mxCell>
        <mxCell id="Y3J3v4-f-Fv20hqHsZZ0-55" value="" style="image;aspect=fixed;perimeter=ellipsePerimeter;html=1;align=center;shadow=0;dashed=0;spacingTop=3;image=img/lib/active_directory/workstation_client.svg;" parent="3EoNgzlk2bNuSgaq7oMU-33" vertex="1">
          <mxGeometry x="9.5" width="42.5" height="50" as="geometry" />
        </mxCell>
        <mxCell id="Y3J3v4-f-Fv20hqHsZZ0-57" value="WIN11" style="text;html=1;align=center;verticalAlign=middle;whiteSpace=wrap;rounded=0;labelBackgroundColor=default;fontColor=#FF3333;" parent="3EoNgzlk2bNuSgaq7oMU-33" vertex="1">
          <mxGeometry x="2" y="45" width="60" height="30" as="geometry" />
        </mxCell>
        <mxCell id="3EoNgzlk2bNuSgaq7oMU-29" value="&lt;div style=&quot;font-size: 8px;&quot;&gt;10.30.50.9&lt;/div&gt;" style="text;html=1;align=center;verticalAlign=middle;whiteSpace=wrap;rounded=0;fontSize=8;labelBackgroundColor=default;" vertex="1" parent="3EoNgzlk2bNuSgaq7oMU-33">
          <mxGeometry y="19" width="60" height="30" as="geometry" />
        </mxCell>
      </root>
    </mxGraphModel>
  </diagram>
</mxfile>
